<svg width="20" height="32" viewBox="0 0 20 32" fill="none" xmlns="http://www.w3.org/2000/svg">
<path d="M0.155162 31.5211H0.394625C0.618123 31.5211 0.825657 31.4253 1.01723 31.2337C1.2088 31.0422 1.36844 30.8187 1.49615 30.5632C1.65579 30.3078 1.76754 30.0364 1.8314 29.7491C1.89526 29.4298 1.92718 29.1424 1.92718 28.887V3.40818C1.92718 3.18468 1.89526 2.92925 1.8314 2.6419C1.76754 2.35454 1.65579 2.08315 1.49615 1.82773C1.36844 1.54037 1.19283 1.31687 0.969335 1.15723C0.777765 0.965662 0.554266 0.869877 0.29884 0.869877H0.0593773V0.390953H7.91375C10.8831 0.390953 13.1979 1.04548 14.8582 2.35455C16.5504 3.66361 17.3965 5.4037 17.3965 7.57483C17.3965 8.50075 17.2368 9.33088 16.9175 10.0652C16.5983 10.7996 16.1832 11.4541 15.6723 12.0288C15.1934 12.6035 14.6666 13.0984 14.0919 13.5135C13.5172 13.8966 12.9744 14.2159 12.4635 14.4713C13.8045 14.7268 14.922 15.1578 15.816 15.7644C16.71 16.3711 17.4284 17.0735 17.9712 17.8717C18.5459 18.638 18.945 19.4681 19.1685 20.3621C19.392 21.2561 19.5037 22.1341 19.5037 22.9962C19.5037 24.6565 19.2004 26.0613 18.5938 27.2108C17.9871 28.3282 17.173 29.2542 16.1513 29.9885C15.1615 30.6909 14.0121 31.2018 12.703 31.5211C11.4259 31.8404 10.1008 32 8.72792 32H0.155162V31.5211ZM16.247 23.2836C15.9916 20.8251 15.1615 18.9253 13.7566 17.5844C12.3518 16.2434 10.3722 15.5729 7.81796 15.5729H5.13598V30.4195H7.91375C10.4999 30.4195 12.5274 29.8448 13.9961 28.6954C15.4967 27.5141 16.247 25.8857 16.247 23.8104V23.2836ZM14.2834 8.00586C14.1877 6.15402 13.5331 4.68531 12.3199 3.59975C11.1385 2.51419 9.54209 1.9714 7.53061 1.9714H5.13598V14.0403H7.62639C8.96738 14.0403 10.0529 13.8647 10.8831 13.5135C11.7451 13.1623 12.4316 12.7153 12.9425 12.1725C13.4533 11.5978 13.8045 10.9752 13.9961 10.3047C14.1877 9.6342 14.2834 8.97967 14.2834 8.34111V8.00586Z" fill="white"/>
</svg>
