<svg width="84" height="33" viewBox="0 0 84 33" fill="none" xmlns="http://www.w3.org/2000/svg">
<path d="M0.155162 31.5211H0.394625C0.618123 31.5211 0.825657 31.4253 1.01723 31.2337C1.2088 31.0422 1.36844 30.8187 1.49615 30.5632C1.65579 30.3078 1.76754 30.0364 1.8314 29.7491C1.89526 29.4298 1.92718 29.1424 1.92718 28.887V3.40818C1.92718 3.18468 1.89526 2.92925 1.8314 2.6419C1.76754 2.35454 1.65579 2.08315 1.49615 1.82773C1.36844 1.54037 1.19283 1.31687 0.969335 1.15723C0.777765 0.965662 0.554266 0.869877 0.29884 0.869877H0.0593773V0.390953H7.91375C10.8831 0.390953 13.1979 1.04548 14.8582 2.35455C16.5504 3.66361 17.3965 5.4037 17.3965 7.57483C17.3965 8.50075 17.2368 9.33088 16.9175 10.0652C16.5983 10.7996 16.1832 11.4541 15.6723 12.0288C15.1934 12.6035 14.6666 13.0984 14.0919 13.5135C13.5172 13.8966 12.9744 14.2159 12.4635 14.4713C13.8045 14.7268 14.922 15.1578 15.816 15.7644C16.71 16.3711 17.4284 17.0735 17.9712 17.8717C18.5459 18.638 18.945 19.4681 19.1685 20.3621C19.392 21.2561 19.5037 22.1341 19.5037 22.9962C19.5037 24.6565 19.2004 26.0613 18.5938 27.2108C17.9871 28.3282 17.173 29.2542 16.1513 29.9885C15.1615 30.6909 14.0121 31.2018 12.703 31.5211C11.4259 31.8404 10.1008 32 8.72792 32H0.155162V31.5211ZM16.247 23.2836C15.9916 20.8251 15.1615 18.9253 13.7566 17.5844C12.3518 16.2434 10.3722 15.5729 7.81796 15.5729H5.13598V30.4195H7.91375C10.4999 30.4195 12.5274 29.8448 13.9961 28.6954C15.4967 27.5141 16.247 25.8857 16.247 23.8104V23.2836ZM14.2834 8.00586C14.1877 6.15402 13.5331 4.68531 12.3199 3.59975C11.1385 2.51419 9.54209 1.9714 7.53061 1.9714H5.13598V14.0403H7.62639C8.96738 14.0403 10.0529 13.8647 10.8831 13.5135C11.7451 13.1623 12.4316 12.7153 12.9425 12.1725C13.4533 11.5978 13.8045 10.9752 13.9961 10.3047C14.1877 9.6342 14.2834 8.97967 14.2834 8.34111V8.00586ZM36.2306 32V29.5575L35.9911 29.7969C35.1929 30.5952 34.267 31.2178 33.2133 31.6648C32.1916 32.1117 30.9464 32.3352 29.4777 32.3352C28.3602 32.3352 27.4024 32.2075 26.6042 31.9521C25.806 31.6967 25.1514 31.3455 24.6406 30.8985C24.1297 30.4195 23.7466 29.8768 23.4912 29.2701C23.2677 28.6635 23.1559 28.0249 23.1559 27.3544C23.1559 26.2689 23.4433 25.311 24.018 24.4809C24.6246 23.6507 25.4867 22.9164 26.6042 22.2778C27.7217 21.6393 29.0786 21.0645 30.675 20.5537C32.3034 20.0109 34.1552 19.4841 36.2306 18.9732C36.1667 17.728 35.9113 16.7223 35.4643 15.956C35.0173 15.1897 34.4905 14.5991 33.8838 14.184C33.2772 13.737 32.6386 13.4496 31.9681 13.3219C31.2976 13.1623 30.7229 13.0825 30.244 13.0825C29.4139 13.0825 28.6795 13.2102 28.0409 13.4656C27.4343 13.721 26.8915 14.0563 26.4126 14.4713C25.9656 14.8545 25.5825 15.2855 25.2632 15.7644C24.9439 16.2114 24.6885 16.6425 24.4969 17.0575H24.0659V13.5614C24.3213 13.5295 24.5608 13.4496 24.7843 13.3219C25.0077 13.1942 25.2791 13.0665 25.5984 12.9388C26.0773 12.7472 26.7319 12.4758 27.562 12.1246C28.3922 11.7415 29.5575 11.5499 31.0582 11.5499C32.8142 11.5499 34.235 11.7734 35.3206 12.2204C36.4062 12.6674 37.2363 13.2581 37.811 13.9924C38.4176 14.7268 38.8168 15.5729 39.0083 16.5307C39.1999 17.4566 39.2957 18.4145 39.2957 19.4043V28.887C39.2957 29.5256 39.4394 30.1322 39.7267 30.7069C40.0141 31.2497 40.3972 31.5211 40.8761 31.5211V32H36.2306ZM36.2306 27.4502V20.6016L35.7516 20.6974C34.9854 20.8889 34.0435 21.1444 32.926 21.4637C31.8404 21.7829 30.8027 22.198 29.813 22.7089C28.8232 23.2197 27.9771 23.8263 27.2747 24.5288C26.5722 25.2312 26.221 26.0454 26.221 26.9713C26.221 27.993 26.6361 28.8391 27.4662 29.5096C28.2964 30.1801 29.3819 30.5153 30.7229 30.5153C31.7766 30.5153 32.7025 30.2918 33.5007 29.8448C34.2989 29.3659 35.0332 28.7593 35.7037 28.0249L36.2306 27.4502ZM61.0404 26.5403C61.0404 27.3704 60.8328 28.1367 60.4178 28.8391C60.0027 29.5415 59.428 30.1641 58.6936 30.7069C57.9912 31.2178 57.1611 31.6328 56.2032 31.9521C55.2454 32.2395 54.2077 32.3831 53.0902 32.3831C51.7173 32.3831 50.5998 32.2075 49.7377 31.8563C48.8757 31.4732 48.1413 31.09 47.5347 30.7069C47.1196 30.4515 46.7365 30.2439 46.3853 30.0843C46.0341 29.8927 45.6509 29.7969 45.2358 29.7969V26.1571H45.7148C45.8106 26.6041 46.0819 27.099 46.5289 27.6418C47.0079 28.1526 47.5666 28.6316 48.2052 29.0786C48.8757 29.5256 49.5941 29.9087 50.3603 30.228C51.1585 30.5153 51.9568 30.659 52.755 30.659C53.3297 30.659 53.9204 30.5952 54.527 30.4674C55.1336 30.3397 55.6764 30.1322 56.1553 29.8448C56.6662 29.5575 57.0813 29.2063 57.4005 28.7912C57.7517 28.3442 57.9274 27.8174 57.9274 27.2108C57.9274 26.6041 57.7517 26.0773 57.4005 25.6303C57.0493 25.1833 56.6023 24.8002 56.0595 24.4809C55.5168 24.1297 54.8942 23.8263 54.1917 23.5709C53.4893 23.3155 52.7869 23.076 52.0845 22.8525C51.2543 22.5971 50.4082 22.3098 49.5462 21.9905C48.716 21.6712 47.9657 21.304 47.2952 20.8889C46.6247 20.4419 46.0819 19.9151 45.6669 19.3085C45.2518 18.6699 45.0443 17.9196 45.0443 17.0575C45.0443 16.3232 45.172 15.6208 45.4274 14.9503C45.7148 14.2798 46.1618 13.7051 46.7684 13.2261C47.407 12.7153 48.2211 12.3162 49.2109 12.0288C50.2007 11.7095 51.398 11.5499 52.8029 11.5499C54.0481 11.5499 55.0059 11.6617 55.6764 11.8852C56.3788 12.0767 56.9535 12.2843 57.4005 12.5078C57.6879 12.6674 57.9752 12.7951 58.2626 12.8909C58.55 12.9548 58.8692 12.9867 59.2205 12.9867V16.3392H58.8373C58.2626 15.2855 57.3846 14.4873 56.2032 13.9445C55.0219 13.4017 53.8086 13.1304 52.5634 13.1304C51.7652 13.1304 51.0787 13.2421 50.504 13.4656C49.9293 13.6572 49.4504 13.9126 49.0672 14.2319C48.716 14.5192 48.4446 14.8545 48.2531 15.2376C48.0934 15.6208 48.0136 16.0039 48.0136 16.387C48.0136 16.9298 48.1573 17.3928 48.4446 17.7759C48.7639 18.1591 49.179 18.4943 49.6898 18.7817C50.2326 19.069 50.8233 19.3404 51.4619 19.5958C52.1324 19.8513 52.8348 20.0907 53.5691 20.3142C54.4631 20.6016 55.3571 20.9209 56.2511 21.2721C57.1451 21.5914 57.9433 21.9905 58.6457 22.4694C59.3482 22.9483 59.9229 23.523 60.3699 24.1935C60.8169 24.8321 61.0404 25.6143 61.0404 26.5403ZM81.1137 32C80.5709 32 80.06 31.8883 79.5811 31.6648C79.1341 31.4093 78.735 31.1379 78.3838 30.8506C77.9687 30.4994 77.5856 30.1162 77.2344 29.7012L71.0563 21.751L70.0505 22.7567V28.9828C70.0505 29.2063 70.0824 29.4617 70.1463 29.7491C70.2102 30.0364 70.3059 30.3238 70.4337 30.6111C70.5933 30.8665 70.7689 31.09 70.9605 31.2816C71.152 31.4413 71.3755 31.5211 71.631 31.5211V32H65.4049V31.5211C65.6284 31.5211 65.836 31.4413 66.0275 31.2816C66.2191 31.09 66.3788 30.8665 66.5065 30.6111C66.6342 30.3557 66.73 30.0843 66.7938 29.7969C66.8577 29.5096 66.8896 29.2382 66.8896 28.9828V4.60549C66.8896 4.1585 66.7459 3.7115 66.4586 3.2645C66.1712 2.81751 65.7881 2.57804 65.3092 2.54612V2.06719L70.0505 0.582523V20.5537L77.8091 13.274C77.9687 13.1144 78.0486 12.9228 78.0486 12.6993C78.0486 12.4758 77.9368 12.3641 77.7133 12.3641V11.8852H82.0236V12.3641C81.8321 12.3641 81.6245 12.412 81.401 12.5078C81.2095 12.6035 81.0179 12.7153 80.8263 12.843C80.6028 12.9707 80.3793 13.1304 80.1558 13.3219L73.3551 19.6437L80.4432 28.5996C80.8583 29.1743 81.2733 29.6692 81.6884 30.0843C82.0396 30.4355 82.4068 30.7708 82.7899 31.09C83.205 31.3774 83.5562 31.5211 83.8436 31.5211V32H81.1137Z" fill="black"/>
</svg>
